STARTFONT 2.1
COMMENT
COMMENT Converted from OpenType font "manrope-light.otf" by "otf2bdf 3.0".
COMMENT
FONT -FreeType-Manrope Light-Medium-R-Normal--25-180-100-100-P-111-ISO10646-1
SIZE 18 100 100
FONTBOUNDINGBOX 23 31 0 -6
STARTPROPERTIES 19
FOUNDRY "FreeType"
FAMILY_NAME "Manrope Light"
WEIGHT_NAME "Medium"
SLANT "R"
SETWIDTH_NAME "Normal"
ADD_STYLE_NAME ""
PIXEL_SIZE 25
POINT_SIZE 180
RESOLUTION_X 100
RESOLUTION_Y 100
SPACING "P"
AVERAGE_WIDTH 111
CHARSET_REGISTRY "ISO10646"
CHARSET_ENCODING "1"
FONT_ASCENT 26
FONT_DESCENT 7
COPYRIGHT "Copyright 2019-2021 The Manrope Project Authors (https://github.com/sharanda/manrope)"
_OTF_FONTFILE "manrope-light.otf"
_OTF_PSNAME "Manrope-Light"
ENDPROPERTIES
CHARS 191
STARTCHAR 0020
ENCODING 32
SWIDTH 200 0
DWIDTH 5 0
BBX 0 0 0 0
BITMAP
ENDCHAR
STARTCHAR 0021
ENCODING 33
SWIDTH 280 0
DWIDTH 7 0
BBX 1 18 3 0
BITMAP
80
80
80
80
80
80
80
80
80
80
80
80
80
80
00
00
80
80
ENDCHAR
STARTCHAR 0022
ENCODING 34
SWIDTH 360 0
DWIDTH 9 0
BBX 6 5 1 13
BITMAP
CC
CC
CC
CC
CC
ENDCHAR
STARTCHAR 0023
ENCODING 35
SWIDTH 920 0
DWIDTH 23 0
BBX 19 18 2 0
BITMAP
008200
008200
018600
018600
010400
7FFFE0
030C00
020800
020800
020800
061800
FFFFC0
041000
0C3000
0C3000
082000
082000
186000
ENDCHAR
STARTCHAR 0024
ENCODING 36
SWIDTH 560 0
DWIDTH 14 0
BBX 13 22 1 -2
BITMAP
0600
0600
1F80
39E0
6020
4030
C010
4000
6000
3800
1F00
01E0
0030
0010
0018
8018
C010
6030
3DE0
1FC0
0600
0600
ENDCHAR
STARTCHAR 0025
ENCODING 37
SWIDTH 920 0
DWIDTH 23 0
BBX 20 18 1 0
BITMAP
1E0020
330060
4180C0
408180
C08300
408600
618C00
3F1800
003000
006000
00C7C0
018C60
031830
061010
0C1010
181830
300EE0
2007C0
ENDCHAR
STARTCHAR 0026
ENCODING 38
SWIDTH 640 0
DWIDTH 16 0
BBX 14 18 1 0
BITMAP
0F80
3DC0
3060
6000
6000
6000
2000
3000
1800
3600
6318
C198
C0D8
C078
C038
6038
3CEC
0F84
ENDCHAR
STARTCHAR 0027
ENCODING 39
SWIDTH 200 0
DWIDTH 5 0
BBX 2 5 1 13
BITMAP
C0
C0
C0
C0
C0
ENDCHAR
STARTCHAR 0028
ENCODING 40
SWIDTH 400 0
DWIDTH 10 0
BBX 6 25 3 -4
BITMAP
04
0C
18
10
30
20
20
60
40
40
40
40
C0
C0
40
40
40
60
60
20
30
10
18
0C
04
ENDCHAR
STARTCHAR 0029
ENCODING 41
SWIDTH 400 0
DWIDTH 10 0
BBX 6 25 1 -4
BITMAP
40
40
60
30
10
10
18
08
08
0C
0C
0C
04
04
0C
0C
08
08
08
18
10
30
20
60
C0
ENDCHAR
STARTCHAR 002A
ENCODING 42
SWIDTH 440 0
DWIDTH 11 0
BBX 8 8 1 10
BITMAP
18
18
99
FF
18
3C
64
46
ENDCHAR
STARTCHAR 002B
ENCODING 43
SWIDTH 560 0
DWIDTH 14 0
BBX 12 11 1 4
BITMAP
0200
0200
0200
0200
0200
FFF0
0200
0200
0200
0200
0200
ENDCHAR
STARTCHAR 002C
ENCODING 44
SWIDTH 240 0
DWIDTH 6 0
BBX 2 5 1 -3
BITMAP
C0
C0
40
40
40
ENDCHAR
STARTCHAR 002D
ENCODING 45
SWIDTH 440 0
DWIDTH 11 0
BBX 8 1 1 7
BITMAP
FF
ENDCHAR
STARTCHAR 002E
ENCODING 46
SWIDTH 240 0
DWIDTH 6 0
BBX 2 2 2 0
BITMAP
C0
C0
ENDCHAR
STARTCHAR 002F
ENCODING 47
SWIDTH 360 0
DWIDTH 9 0
BBX 6 18 2 0
BITMAP
0C
08
08
18
18
10
10
30
30
20
60
60
40
40
C0
C0
80
80
ENDCHAR
STARTCHAR 0030
ENCODING 48
SWIDTH 600 0
DWIDTH 15 0
BBX 11 18 2 0
BITMAP
1F00
7B80
60C0
C060
8020
8020
8020
8020
8020
8020
8020
8020
8020
8020
C060
60C0
7B80
1F00
ENDCHAR
STARTCHAR 0031
ENCODING 49
SWIDTH 360 0
DWIDTH 9 0
BBX 5 18 1 0
BITMAP
18
78
C8
88
08
08
08
08
08
08
08
08
08
08
08
08
08
08
ENDCHAR
STARTCHAR 0032
ENCODING 50
SWIDTH 560 0
DWIDTH 14 0
BBX 12 18 1 0
BITMAP
0F00
3FC0
6060
4020
C030
C030
0030
0020
0060
00C0
0180
0300
0600
0C00
1800
3000
E000
FFF0
ENDCHAR
STARTCHAR 0033
ENCODING 51
SWIDTH 560 0
DWIDTH 14 0
BBX 11 18 1 0
BITMAP
7FE0
0060
00C0
0180
0300
0600
1800
1F80
01C0
0040
0060
0060
0020
0060
C060
40C0
7380
1F00
ENDCHAR
STARTCHAR 0034
ENCODING 52
SWIDTH 600 0
DWIDTH 15 0
BBX 12 18 1 0
BITMAP
0300
0200
0600
0400
0C00
0800
1800
1000
3040
3040
6040
6040
C040
FFF0
0040
0040
0040
0040
ENDCHAR
STARTCHAR 0035
ENCODING 53
SWIDTH 560 0
DWIDTH 14 0
BBX 12 18 1 0
BITMAP
7FE0
6000
6000
4000
4000
4000
4F80
79C0
6060
0030
0030
0010
0010
C030
4030
6060
3FC0
0F80
ENDCHAR
STARTCHAR 0036
ENCODING 54
SWIDTH 640 0
DWIDTH 16 0
BBX 12 18 2 0
BITMAP
1F00
39C0
6060
C000
8000
8000
8000
9F80
B0C0
C060
C030
8030
8030
8030
C020
6060
3BC0
1F00
ENDCHAR
STARTCHAR 0037
ENCODING 55
SWIDTH 480 0
DWIDTH 12 0
BBX 10 18 1 0
BITMAP
FFC0
00C0
00C0
0080
0180
0100
0300
0300
0200
0600
0400
0C00
0C00
0800
1800
1000
3000
2000
ENDCHAR
STARTCHAR 0038
ENCODING 56
SWIDTH 560 0
DWIDTH 14 0
BBX 12 18 1 0
BITMAP
0F80
3FC0
6060
6020
4020
6020
6060
39C0
1F80
30E0
6020
4030
C030
C030
4020
6060
39C0
0F80
ENDCHAR
STARTCHAR 0039
ENCODING 57
SWIDTH 640 0
DWIDTH 16 0
BBX 12 18 2 0
BITMAP
1F00
3BC0
6060
C020
8030
8030
8030
C030
C070
70F0
3FB0
0030
0030
0030
0020
6060
3BC0
1F00
ENDCHAR
STARTCHAR 003A
ENCODING 58
SWIDTH 280 0
DWIDTH 7 0
BBX 2 9 3 2
BITMAP
C0
C0
00
00
00
00
00
C0
C0
ENDCHAR
STARTCHAR 003B
ENCODING 59
SWIDTH 280 0
DWIDTH 7 0
BBX 2 17 3 -3
BITMAP
C0
C0
00
00
00
00
00
00
00
00
00
00
C0
C0
40
80
80
ENDCHAR
STARTCHAR 003C
ENCODING 60
SWIDTH 600 0
DWIDTH 15 0
BBX 6 11 4 2
BITMAP
04
0C
18
30
60
C0
C0
60
30
18
0C
ENDCHAR
STARTCHAR 003D
ENCODING 61
SWIDTH 760 0
DWIDTH 19 0
BBX 13 6 3 6
BITMAP
FFF8
0000
0000
0000
0000
FFF8
ENDCHAR
STARTCHAR 003E
ENCODING 62
SWIDTH 600 0
DWIDTH 15 0
BBX 6 11 5 2
BITMAP
80
C0
60
30
18
0C
0C
18
30
60
C0
ENDCHAR
STARTCHAR 003F
ENCODING 63
SWIDTH 520 0
DWIDTH 13 0
BBX 11 18 1 0
BITMAP
1F00
7B80
40C0
C040
C060
0060
0040
00C0
0380
0600
0400
0C00
0C00
0000
0000
0000
0C00
0C00
ENDCHAR
STARTCHAR 0040
ENCODING 64
SWIDTH 920 0
DWIDTH 23 0
BBX 18 18 2 -2
BITMAP
03F800
0F1E00
180300
300180
6000C0
4000C0
C1E840
C33840
821840
861840
861840
C318C0
C1EF80
600300
600000
300000
1C0C00
07F800
ENDCHAR
STARTCHAR 0041
ENCODING 65
SWIDTH 640 0
DWIDTH 16 0
BBX 14 18 1 0
BITMAP
0300
0700
0580
0580
0C80
08C0
08C0
1840
1060
3020
3020
2030
7FF0
6010
4018
C008
C00C
800C
ENDCHAR
STARTCHAR 0042
ENCODING 66
SWIDTH 600 0
DWIDTH 15 0
BBX 12 18 2 0
BITMAP
FF80
81C0
8060
8020
8030
8020
8060
80E0
FFC0
80E0
8030
8030
8010
8010
8010
8030
81E0
FFC0
ENDCHAR
STARTCHAR 0043
ENCODING 67
SWIDTH 720 0
DWIDTH 18 0
BBX 16 18 1 0
BITMAP
07E0
1EF8
300C
6006
4002
C003
C000
8000
8000
8000
8000
C000
C003
4002
6006
300C
1E78
07E0
ENDCHAR
STARTCHAR 0044
ENCODING 68
SWIDTH 680 0
DWIDTH 17 0
BBX 13 18 2 0
BITMAP
FF80
83E0
8070
8030
8018
8018
8008
8008
8008
8008
8008
8008
8018
8018
8030
8030
81E0
FF80
ENDCHAR
STARTCHAR 0045
ENCODING 69
SWIDTH 560 0
DWIDTH 14 0
BBX 11 18 2 0
BITMAP
FFE0
8000
8000
8000
8000
8000
8000
8000
FF80
8000
8000
8000
8000
8000
8000
8000
8000
FFE0
ENDCHAR
STARTCHAR 0046
ENCODING 70
SWIDTH 480 0
DWIDTH 12 0
BBX 10 18 2 0
BITMAP
FFC0
8000
8000
8000
8000
8000
8000
8000
8000
FF00
8000
8000
8000
8000
8000
8000
8000
8000
ENDCHAR
STARTCHAR 0047
ENCODING 71
SWIDTH 680 0
DWIDTH 17 0
BBX 16 18 1 0
BITMAP
07E0
1E78
300C
6004
4006
C000
C000
8000
8000
803F
8003
C003
C002
4006
6006
300C
1E78
07E0
ENDCHAR
STARTCHAR 0048
ENCODING 72
SWIDTH 680 0
DWIDTH 17 0
BBX 13 18 2 0
BITMAP
8008
8008
8008
8008
8008
8008
8008
8008
8008
FFF8
8008
8008
8008
8008
8008
8008
8008
8008
ENDCHAR
STARTCHAR 0049
ENCODING 73
SWIDTH 200 0
DWIDTH 5 0
BBX 1 18 2 0
BITMAP
80
80
80
80
80
80
80
80
80
80
80
80
80
80
80
80
80
80
ENDCHAR
STARTCHAR 004A
ENCODING 74
SWIDTH 440 0
DWIDTH 11 0
BBX 9 18 0 0
BITMAP
0080
0080
0080
0080
0080
0080
0080
0080
0080
0080
0080
0080
0080
0080
C080
C180
7700
3E00
ENDCHAR
STARTCHAR 004B
ENCODING 75
SWIDTH 560 0
DWIDTH 14 0
BBX 12 18 2 0
BITMAP
8060
80C0
8180
8300
8600
8C00
9800
B000
E000
B000
9800
8C00
8600
8300
8180
80C0
8060
8030
ENDCHAR
STARTCHAR 004C
ENCODING 76
SWIDTH 520 0
DWIDTH 13 0
BBX 10 18 2 0
BITMAP
8000
8000
8000
8000
8000
8000
8000
8000
8000
8000
8000
8000
8000
8000
8000
8000
8000
FFC0
ENDCHAR
STARTCHAR 004D
ENCODING 77
SWIDTH 840 0
DWIDTH 21 0
BBX 17 18 2 0
BITMAP
800080
C00180
C00180
E00380
A00280
B00680
900480
980C80
980880
881880
8C1080
843080
863080
822080
836080
814080
81C080
808080
ENDCHAR
STARTCHAR 004E
ENCODING 78
SWIDTH 680 0
DWIDTH 17 0
BBX 13 18 2 0
BITMAP
C008
C008
E008
B008
B008
9808
8C08
8408
8608
8308
8108
8188
80C8
8048
8068
8038
8018
8018
ENDCHAR
STARTCHAR 004F
ENCODING 79
SWIDTH 720 0
DWIDTH 18 0
BBX 16 18 1 0
BITMAP
07E0
1E78
300C
6006
4002
C003
C003
8003
8001
8001
8003
C003
C003
4002
6006
300C
1E78
07E0
ENDCHAR
STARTCHAR 0050
ENCODING 80
SWIDTH 600 0
DWIDTH 15 0
BBX 12 18 2 0
BITMAP
FF80
81C0
8060
8030
8030
8010
8030
8030
8060
80E0
FF80
8000
8000
8000
8000
8000
8000
8000
ENDCHAR
STARTCHAR 0051
ENCODING 81
SWIDTH 720 0
DWIDTH 18 0
BBX 16 18 1 0
BITMAP
07E0
1E78
300C
6006
4002
C003
C003
8003
8001
8003
8003
C003
C003
4032
601E
300C
1E7E
07E2
ENDCHAR
STARTCHAR 0052
ENCODING 82
SWIDTH 640 0
DWIDTH 16 0
BBX 12 18 2 0
BITMAP
FF80
81C0
8060
8030
8030
8010
8030
8030
8060
80E0
FF80
8080
80C0
8040
8060
8020
8030
8010
ENDCHAR
STARTCHAR 0053
ENCODING 83
SWIDTH 600 0
DWIDTH 15 0
BBX 13 18 1 0
BITMAP
0F80
3DE0
6030
4018
C018
4000
6000
3800
0F80
01E0
0030
0018
0008
8008
C018
6018
3CF0
0FC0
ENDCHAR
STARTCHAR 0054
ENCODING 84
SWIDTH 600 0
DWIDTH 15 0
BBX 15 18 0 0
BITMAP
FFFE
0100
0100
0100
0100
0100
0100
0100
0100
0100
0100
0100
0100
0100
0100
0100
0100
0100
ENDCHAR
STARTCHAR 0055
ENCODING 85
SWIDTH 680 0
DWIDTH 17 0
BBX 14 18 2 0
BITMAP
800C
800C
800C
800C
800C
800C
800C
800C
800C
800C
800C
800C
800C
C008
C018
6030
3DE0
0FC0
ENDCHAR
STARTCHAR 0056
ENCODING 86
SWIDTH 600 0
DWIDTH 15 0
BBX 14 18 0 0
BITMAP
C004
4004
600C
6008
2008
3018
3010
1030
1830
1820
0860
0C60
0440
04C0
06C0
0280
0380
0300
ENDCHAR
STARTCHAR 0057
ENCODING 87
SWIDTH 920 0
DWIDTH 23 0
BBX 21 18 1 0
BITMAP
802008
807008
C07018
C05018
40D810
60D810
608830
208820
218C20
318C60
310460
130640
1B0640
1A02C0
0A0280
0E0380
0E0380
0C0180
ENDCHAR
STARTCHAR 0058
ENCODING 88
SWIDTH 600 0
DWIDTH 15 0
BBX 13 18 1 0
BITMAP
8018
C010
6030
3060
3040
18C0
0D80
0700
0600
0700
0D00
0980
18C0
3040
2060
6030
C010
8018
ENDCHAR
STARTCHAR 0059
ENCODING 89
SWIDTH 520 0
DWIDTH 13 0
BBX 13 18 0 0
BITMAP
C018
6018
6030
3020
1060
1840
08C0
0D80
0780
0700
0200
0200
0200
0200
0200
0200
0200
0200
ENDCHAR
STARTCHAR 005A
ENCODING 90
SWIDTH 600 0
DWIDTH 15 0
BBX 13 18 1 0
BITMAP
FFF8
0030
0020
0060
00C0
00C0
0180
0100
0300
0600
0400
0C00
1800
1800
3000
2000
6000
FFF8
ENDCHAR
STARTCHAR 005B
ENCODING 91
SWIDTH 400 0
DWIDTH 10 0
BBX 5 27 3 -5
BITMAP
F8
C0
C0
C0
C0
C0
C0
C0
C0
C0
C0
C0
C0
C0
C0
C0
C0
C0
C0
C0
C0
C0
C0
C0
C0
C0
F8
ENDCHAR
STARTCHAR 005C
ENCODING 92
SWIDTH 360 0
DWIDTH 9 0
BBX 6 18 2 0
BITMAP
80
80
C0
C0
40
40
60
60
20
30
30
10
10
18
18
08
08
0C
ENDCHAR
STARTCHAR 005D
ENCODING 93
SWIDTH 400 0
DWIDTH 10 0
BBX 5 27 2 -5
BITMAP
F8
18
18
18
18
18
18
18
18
18
18
18
18
18
18
18
18
18
18
18
18
18
18
18
18
18
F8
ENDCHAR
STARTCHAR 005E
ENCODING 94
SWIDTH 680 0
DWIDTH 17 0
BBX 11 7 3 12
BITMAP
0400
0E00
1B00
3180
60C0
C060
8020
ENDCHAR
STARTCHAR 005F
ENCODING 95
SWIDTH 680 0
DWIDTH 17 0
BBX 16 1 0 -2
BITMAP
FFFF
ENDCHAR
STARTCHAR 0060
ENCODING 96
SWIDTH 480 0
DWIDTH 12 0
BBX 3 4 4 20
BITMAP
C0
40
40
20
ENDCHAR
STARTCHAR 0061
ENCODING 97
SWIDTH 560 0
DWIDTH 14 0
BBX 11 14 1 0
BITMAP
1F80
39C0
6060
4060
0020
0020
0FE0
7C20
C020
C060
C060
C0E0
63A0
3E20
ENDCHAR
STARTCHAR 0062
ENCODING 98
SWIDTH 600 0
DWIDTH 15 0
BBX 12 18 2 0
BITMAP
8000
8000
8000
8000
9F00
BBC0
E0C0
C060
8020
8020
8030
8030
8020
8020
C060
E0C0
BBC0
9F00
ENDCHAR
STARTCHAR 0063
ENCODING 99
SWIDTH 560 0
DWIDTH 14 0
BBX 12 14 1 0
BITMAP
0F80
3DC0
6060
4030
C000
C000
C000
C000
C000
C000
4030
6060
3DC0
0F80
ENDCHAR
STARTCHAR 0064
ENCODING 100
SWIDTH 600 0
DWIDTH 15 0
BBX 12 18 1 0
BITMAP
0030
0030
0030
0030
1F30
39F0
6070
4030
C030
C030
C030
C010
C030
C030
4030
6050
39D0
0F10
ENDCHAR
STARTCHAR 0065
ENCODING 101
SWIDTH 560 0
DWIDTH 14 0
BBX 12 14 1 0
BITMAP
0F80
3DC0
6060
4030
C010
C010
FFF0
C000
C000
C000
4030
6020
3DE0
0F80
ENDCHAR
STARTCHAR 0066
ENCODING 102
SWIDTH 360 0
DWIDTH 9 0
BBX 7 18 1 0
BITMAP
1E
38
30
30
FE
30
30
30
30
30
30
30
30
30
30
30
30
30
ENDCHAR
STARTCHAR 0067
ENCODING 103
SWIDTH 600 0
DWIDTH 15 0
BBX 12 20 1 -6
BITMAP
1F10
39D0
6070
4030
C030
C030
C030
C010
C030
C030
4030
6070
39F0
0F30
0030
0030
0020
6060
3BC0
1F80
ENDCHAR
STARTCHAR 0068
ENCODING 104
SWIDTH 600 0
DWIDTH 15 0
BBX 11 18 2 0
BITMAP
8000
8000
8000
8000
9F00
BB80
E0C0
C060
8060
8020
8020
8020
8020
8020
8020
8020
8020
8020
ENDCHAR
STARTCHAR 0069
ENCODING 105
SWIDTH 200 0
DWIDTH 5 0
BBX 1 18 2 0
BITMAP
80
80
00
00
80
80
80
80
80
80
80
80
80
80
80
80
80
80
ENDCHAR
STARTCHAR 006A
ENCODING 106
SWIDTH 240 0
DWIDTH 6 0
BBX 4 24 0 -6
BITMAP
10
10
00
00
10
10
10
10
10
10
10
10
10
10
10
10
10
10
10
10
10
30
70
E0
ENDCHAR
STARTCHAR 006B
ENCODING 107
SWIDTH 480 0
DWIDTH 12 0
BBX 10 18 2 0
BITMAP
8000
8000
8000
8000
8180
8300
8600
8C00
9800
B000
E000
E000
B800
8C00
8600
8300
8180
80C0
ENDCHAR
STARTCHAR 006C
ENCODING 108
SWIDTH 200 0
DWIDTH 5 0
BBX 1 18 2 0
BITMAP
80
80
80
80
80
80
80
80
80
80
80
80
80
80
80
80
80
80
ENDCHAR
STARTCHAR 006D
ENCODING 109
SWIDTH 840 0
DWIDTH 21 0
BBX 17 14 2 0
BITMAP
9E1E00
E36300
C1C180
80C080
808080
808080
808080
808080
808080
808080
808080
808080
808080
808080
ENDCHAR
STARTCHAR 006E
ENCODING 110
SWIDTH 600 0
DWIDTH 15 0
BBX 11 14 2 0
BITMAP
9F00
BB80
E0C0
C060
8060
8020
8020
8020
8020
8020
8020
8020
8020
8020
ENDCHAR
STARTCHAR 006F
ENCODING 111
SWIDTH 600 0
DWIDTH 15 0
BBX 13 14 1 0
BITMAP
0F80
3DC0
6060
4030
C010
C010
C018
C018
C010
C010
4030
6060
3DC0
0F80
ENDCHAR
STARTCHAR 0070
ENCODING 112
SWIDTH 600 0
DWIDTH 15 0
BBX 12 20 2 -6
BITMAP
9F00
BBC0
E0C0
C060
8020
8020
8030
8030
8020
8020
C060
E0C0
BBC0
9F00
8000
8000
8000
8000
8000
8000
ENDCHAR
STARTCHAR 0071
ENCODING 113
SWIDTH 600 0
DWIDTH 15 0
BBX 12 20 1 -6
BITMAP
1F10
39D0
6070
4030
C030
C030
C030
C010
C030
C030
4030
6070
39F0
0F30
0030
0030
0030
0030
0030
0030
ENDCHAR
STARTCHAR 0072
ENCODING 114
SWIDTH 360 0
DWIDTH 9 0
BBX 6 14 2 0
BITMAP
9C
B0
C0
C0
80
80
80
80
80
80
80
80
80
80
ENDCHAR
STARTCHAR 0073
ENCODING 115
SWIDTH 520 0
DWIDTH 13 0
BBX 11 14 1 0
BITMAP
1F00
73C0
4060
C060
C000
7000
1E00
03C0
0060
0060
C060
C060
79C0
1F80
ENDCHAR
STARTCHAR 0074
ENCODING 116
SWIDTH 400 0
DWIDTH 10 0
BBX 9 18 0 0
BITMAP
1800
1800
1800
1800
FF80
1800
1800
1800
1800
1800
1800
1800
1800
1800
1800
1800
0C00
0780
ENDCHAR
STARTCHAR 0075
ENCODING 117
SWIDTH 600 0
DWIDTH 15 0
BBX 12 14 1 0
BITMAP
C030
C030
C030
C030
C030
C030
C030
C030
C030
4030
6030
6070
39D0
1F10
ENDCHAR
STARTCHAR 0076
ENCODING 118
SWIDTH 480 0
DWIDTH 12 0
BBX 11 14 1 0
BITMAP
8060
C040
C0C0
40C0
6080
6180
2180
3100
3300
1200
1A00
1E00
0C00
0C00
ENDCHAR
STARTCHAR 0077
ENCODING 119
SWIDTH 760 0
DWIDTH 19 0
BBX 17 14 1 0
BITMAP
808080
81C180
C1C180
C14100
434100
636300
622200
222200
263600
341600
141400
1C1C00
181C00
180800
ENDCHAR
STARTCHAR 0078
ENCODING 120
SWIDTH 520 0
DWIDTH 13 0
BBX 11 14 1 0
BITMAP
C060
C040
60C0
3180
1B00
0A00
0E00
0E00
1B00
1100
3180
60C0
C060
8020
ENDCHAR
STARTCHAR 0079
ENCODING 121
SWIDTH 520 0
DWIDTH 13 0
BBX 11 20 1 -6
BITMAP
8020
C060
C040
4040
60C0
2080
3180
3180
1100
1B00
0B00
0E00
0600
0400
0400
0C00
0800
1800
1800
1000
ENDCHAR
STARTCHAR 007A
ENCODING 122
SWIDTH 520 0
DWIDTH 13 0
BBX 11 14 1 0
BITMAP
FFE0
0040
00C0
0180
0300
0200
0600
0C00
1800
1000
3000
6000
C000
FFE0
ENDCHAR
STARTCHAR 007B
ENCODING 123
SWIDTH 400 0
DWIDTH 10 0
BBX 5 27 4 -5
BITMAP
38
70
40
40
40
40
40
40
40
40
40
40
C0
80
C0
40
40
40
40
40
40
40
40
40
40
60
38
ENDCHAR
STARTCHAR 007C
ENCODING 124
SWIDTH 240 0
DWIDTH 6 0
BBX 2 18 2 0
BITMAP
C0
C0
C0
C0
C0
C0
C0
C0
C0
C0
C0
C0
C0
C0
C0
C0
C0
C0
ENDCHAR
STARTCHAR 007D
ENCODING 125
SWIDTH 400 0
DWIDTH 10 0
BBX 6 27 1 -5
BITMAP
E0
30
10
10
10
10
10
10
10
10
10
10
18
0C
08
18
10
10
10
10
10
10
10
10
10
10
F0
ENDCHAR
STARTCHAR 007E
ENCODING 126
SWIDTH 640 0
DWIDTH 16 0
BBX 10 4 3 6
BITMAP
70C0
FCC0
CFC0
C380
ENDCHAR
STARTCHAR 00A0
ENCODING 160
SWIDTH 200 0
DWIDTH 5 0
BBX 0 0 0 0
BITMAP
ENDCHAR
STARTCHAR 00A1
ENCODING 161
SWIDTH 280 0
DWIDTH 7 0
BBX 1 18 3 -4
BITMAP
80
80
00
00
80
80
80
80
80
80
80
80
80
80
80
80
80
80
ENDCHAR
STARTCHAR 00A2
ENCODING 162
SWIDTH 560 0
DWIDTH 14 0
BBX 12 19 1 -1
BITMAP
0200
0200
0F00
3FC0
7060
6030
C000
C000
C000
C000
C000
C000
4020
6020
30E0
1FC0
0200
0200
0200
ENDCHAR
STARTCHAR 00A3
ENCODING 163
SWIDTH 560 0
DWIDTH 14 0
BBX 12 18 1 0
BITMAP
03C0
0EE0
0830
1810
1810
1800
1800
1800
1800
FF80
1800
1800
1800
1800
1800
1800
3800
FFF0
ENDCHAR
STARTCHAR 00A4
ENCODING 164
SWIDTH 640 0
DWIDTH 16 0
BBX 14 14 1 2
BITMAP
8000
CFCC
7878
6010
4018
4008
C008
C008
4008
4018
6010
7878
CFCC
8000
ENDCHAR
STARTCHAR 00A5
ENCODING 165
SWIDTH 520 0
DWIDTH 13 0
BBX 13 18 0 0
BITMAP
C018
6018
6030
3020
1060
1840
0CC0
0D80
0700
0300
3FE0
0200
0200
0200
3FE0
0200
0200
0200
ENDCHAR
STARTCHAR 00A6
ENCODING 166
SWIDTH 240 0
DWIDTH 6 0
BBX 2 22 2 -4
BITMAP
C0
C0
C0
C0
C0
C0
C0
C0
C0
00
00
00
00
C0
C0
C0
C0
C0
C0
C0
C0
C0
ENDCHAR
STARTCHAR 00A7
ENCODING 167
SWIDTH 520 0
DWIDTH 13 0
BBX 11 20 1 -4
BITMAP
3F00
61C0
40C0
4040
6000
3800
3F80
61C0
C060
C020
C060
7060
1FC0
01C0
0040
0060
4060
6040
39C0
1F00
ENDCHAR
STARTCHAR 00A8
ENCODING 168
SWIDTH 480 0
DWIDTH 12 0
BBX 6 2 3 21
BITMAP
C4
C4
ENDCHAR
STARTCHAR 00A9
ENCODING 169
SWIDTH 760 0
DWIDTH 19 0
BBX 18 17 1 0
BITMAP
07F800
1C1C00
300600
61E300
473180
C41880
8C0080
8C00C0
8C00C0
8C00C0
8C0080
C41880
473180
63E300
300600
1C1C00
07F800
ENDCHAR
STARTCHAR 00AA
ENCODING 170
SWIDTH 320 0
DWIDTH 8 0
BBX 6 7 1 7
BITMAP
78
CC
04
7C
84
8C
FC
ENDCHAR
STARTCHAR 00AB
ENCODING 171
SWIDTH 520 0
DWIDTH 13 0
BBX 9 11 2 1
BITMAP
0880
1980
3300
6200
4400
CC00
4400
2200
3300
1980
0880
ENDCHAR
STARTCHAR 00AC
ENCODING 172
SWIDTH 600 0
DWIDTH 15 0
BBX 12 4 1 5
BITMAP
FFF0
0010
0010
0010
ENDCHAR
STARTCHAR 00AD
ENCODING 173
SWIDTH 440 0
DWIDTH 11 0
BBX 8 1 1 7
BITMAP
FF
ENDCHAR
STARTCHAR 00AE
ENCODING 174
SWIDTH 600 0
DWIDTH 15 0
BBX 12 12 2 7
BITMAP
1F00
30C0
4060
CE20
8920
8930
8E30
8A20
C920
4060
31C0
1F00
ENDCHAR
STARTCHAR 00AF
ENCODING 175
SWIDTH 480 0
DWIDTH 12 0
BBX 6 1 3 21
BITMAP
FC
ENDCHAR
STARTCHAR 00B0
ENCODING 176
SWIDTH 440 0
DWIDTH 11 0
BBX 9 9 1 9
BITMAP
3C00
7700
C100
8180
8180
8180
C100
6700
3C00
ENDCHAR
STARTCHAR 00B1
ENCODING 177
SWIDTH 600 0
DWIDTH 15 0
BBX 12 12 1 2
BITMAP
0200
0200
0200
0200
FFF0
0200
0200
0200
0200
0000
0000
FFF0
ENDCHAR
STARTCHAR 00B2
ENCODING 178
SWIDTH 400 0
DWIDTH 10 0
BBX 8 11 1 7
BITMAP
3C
66
C2
C3
03
06
0C
18
30
60
FF
ENDCHAR
STARTCHAR 00B3
ENCODING 179
SWIDTH 400 0
DWIDTH 10 0
BBX 7 11 1 7
BITMAP
FE
06
08
10
3C
06
02
02
02
C6
7C
ENDCHAR
STARTCHAR 00B4
ENCODING 180
SWIDTH 480 0
DWIDTH 12 0
BBX 2 4 5 20
BITMAP
40
40
C0
80
ENDCHAR
STARTCHAR 00B5
ENCODING 181
SWIDTH 600 0
DWIDTH 15 0
BBX 11 20 2 -6
BITMAP
8020
8020
8020
8020
8020
8020
8020
8020
8020
8060
C060
C0E0
FBA0
9F20
8000
8000
8000
8000
8000
8000
ENDCHAR
STARTCHAR 00B6
ENCODING 182
SWIDTH 600 0
DWIDTH 15 0
BBX 11 22 2 -4
BITMAP
1F20
3F20
7F20
FF20
FF20
FF20
FF20
FF20
7F20
3F20
1F20
0120
0120
0120
0120
0120
0120
0120
0120
0120
0120
0120
ENDCHAR
STARTCHAR 00B7
ENCODING 183
SWIDTH 200 0
DWIDTH 5 0
BBX 2 2 2 7
BITMAP
C0
C0
ENDCHAR
STARTCHAR 00B8
ENCODING 184
SWIDTH 400 0
DWIDTH 10 0
BBX 4 6 3 -6
BITMAP
20
40
60
30
30
E0
ENDCHAR
STARTCHAR 00B9
ENCODING 185
SWIDTH 320 0
DWIDTH 8 0
BBX 4 11 1 7
BITMAP
30
D0
90
10
10
10
10
10
10
10
10
ENDCHAR
STARTCHAR 00BA
ENCODING 186
SWIDTH 360 0
DWIDTH 9 0
BBX 7 7 1 7
BITMAP
78
CC
84
86
84
C4
78
ENDCHAR
STARTCHAR 00BB
ENCODING 187
SWIDTH 520 0
DWIDTH 13 0
BBX 9 11 2 1
BITMAP
8800
CC00
6600
2200
1100
1980
1100
2200
4600
CC00
8800
ENDCHAR
STARTCHAR 00BC
ENCODING 188
SWIDTH 960 0
DWIDTH 24 0
BBX 20 18 1 0
BITMAP
300100
D00300
900200
100400
100C00
101800
103000
102080
106100
10C100
118300
010200
020660
060460
0C0C60
180FF0
100060
300060
ENDCHAR
STARTCHAR 00BD
ENCODING 189
SWIDTH 920 0
DWIDTH 23 0
BBX 20 18 1 0
BITMAP
300100
F00300
900600
100600
100C00
101800
103000
1021E0
106230
10C410
118010
030010
020030
060060
0C00C0
180100
100600
1007F0
ENDCHAR
STARTCHAR 00BE
ENCODING 190
SWIDTH 960 0
DWIDTH 24 0
BBX 22 18 1 0
BITMAP
FE0040
0600C0
080180
100100
3C0200
060600
020C20
021860
021040
C630C0
7C6080
00C190
008110
010310
030210
0603FC
0C0010
080010
ENDCHAR
STARTCHAR 00BF
ENCODING 191
SWIDTH 520 0
DWIDTH 13 0
BBX 11 19 1 -5
BITMAP
0400
0400
0000
0000
0000
0400
0400
0400
0C00
1800
3000
6000
C000
C000
C060
C040
60C0
7B80
1F00
ENDCHAR
STARTCHAR 00C0
ENCODING 192
SWIDTH 640 0
DWIDTH 16 0
BBX 14 24 1 0
BITMAP
0400
0400
0600
0200
0000
0000
0300
0700
0780
0580
0C80
08C0
08C0
1840
1060
3020
3020
2030
7FF0
6010
4018
C008
C00C
800C
ENDCHAR
STARTCHAR 00C1
ENCODING 193
SWIDTH 640 0
DWIDTH 16 0
BBX 14 24 1 0
BITMAP
0180
0100
0100
0300
0000
0000
0300
0700
0580
0580
0C80
08C0
08C0
1840
1060
3020
3020
2030
7FF0
6010
4018
C008
C00C
800C
ENDCHAR
STARTCHAR 00C2
ENCODING 194
SWIDTH 640 0
DWIDTH 16 0
BBX 14 23 1 0
BITMAP
0300
0580
08C0
0000
0000
0300
0700
0580
0580
0C80
08C0
08C0
1840
1060
3020
3020
2030
7FF0
6010
4018
C008
C00C
800C
ENDCHAR
STARTCHAR 00C3
ENCODING 195
SWIDTH 640 0
DWIDTH 16 0
BBX 14 24 1 0
BITMAP
0C40
1B40
11C0
0000
0000
0000
0300
0700
0580
0580
0C80
08C0
08C0
1840
1060
3020
3020
2030
7FF0
6010
4018
C008
C00C
800C
ENDCHAR
STARTCHAR 00C4
ENCODING 196
SWIDTH 640 0
DWIDTH 16 0
BBX 14 23 1 0
BITMAP
08C0
08C0
0000
0000
0000
0300
0700
0580
0580
0C80
08C0
08C0
1840
1060
3020
3020
2030
7FF0
6010
4018
C008
C00C
800C
ENDCHAR
STARTCHAR 00C5
ENCODING 197
SWIDTH 640 0
DWIDTH 16 0
BBX 14 25 1 0
BITMAP
0700
0D80
0880
0C80
0780
0000
0000
0300
0700
0580
0580
0C80
08C0
08C0
1840
1060
3020
3020
2030
7FF0
6010
4018
C008
C00C
800C
ENDCHAR
STARTCHAR 00C6
ENCODING 198
SWIDTH 920 0
DWIDTH 23 0
BBX 21 18 1 0
BITMAP
03FFF8
066000
046000
046000
0C6000
086000
086000
186000
107FE0
306000
306000
206000
7FE000
606000
406000
C06000
C06000
807FF8
ENDCHAR
STARTCHAR 00C7
ENCODING 199
SWIDTH 720 0
DWIDTH 18 0
BBX 16 23 1 -5
BITMAP
07E0
1EF8
300C
6006
4002
C003
C000
8000
8000
8000
8000
C000
C003
4002
6006
300C
1E78
07E0
0080
0180
0040
0040
0380
ENDCHAR
STARTCHAR 00C8
ENCODING 200
SWIDTH 560 0
DWIDTH 14 0
BBX 11 24 2 0
BITMAP
0800
0800
0C00
0400
0000
0000
FFE0
8000
8000
8000
8000
8000
8000
8000
FF80
8000
8000
8000
8000
8000
8000
8000
8000
FFE0
ENDCHAR
STARTCHAR 00C9
ENCODING 201
SWIDTH 560 0
DWIDTH 14 0
BBX 11 24 2 0
BITMAP
0300
0200
0600
0400
0000
0000
FFE0
8000
8000
8000
8000
8000
8000
8000
FF80
8000
8000
8000
8000
8000
8000
8000
8000
FFE0
ENDCHAR
STARTCHAR 00CA
ENCODING 202
SWIDTH 560 0
DWIDTH 14 0
BBX 11 23 2 0
BITMAP
0C00
1A00
3100
0000
0000
FFE0
8000
8000
8000
8000
8000
8000
8000
FF80
8000
8000
8000
8000
8000
8000
8000
8000
FFE0
ENDCHAR
STARTCHAR 00CB
ENCODING 203
SWIDTH 560 0
DWIDTH 14 0
BBX 11 23 2 0
BITMAP
3300
3300
0000
0000
0000
FFE0
8000
8000
8000
8000
8000
8000
8000
FF80
8000
8000
8000
8000
8000
8000
8000
8000
FFE0
ENDCHAR
STARTCHAR 00CC
ENCODING 204
SWIDTH 200 0
DWIDTH 5 0
BBX 2 24 1 0
BITMAP
80
80
C0
40
00
00
40
40
40
40
40
40
40
40
40
40
40
40
40
40
40
40
40
40
ENDCHAR
STARTCHAR 00CD
ENCODING 205
SWIDTH 200 0
DWIDTH 5 0
BBX 3 24 2 0
BITMAP
60
40
40
C0
00
00
80
80
80
80
80
80
80
80
80
80
80
80
80
80
80
80
80
80
ENDCHAR
STARTCHAR 00CE
ENCODING 206
SWIDTH 200 0
DWIDTH 5 0
BBX 6 23 0 0
BITMAP
70
58
8C
00
00
20
20
20
20
20
20
20
20
20
20
20
20
20
20
20
20
20
20
ENDCHAR
STARTCHAR 00CF
ENCODING 207
SWIDTH 200 0
DWIDTH 5 0
BBX 6 23 0 0
BITMAP
8C
8C
00
00
00
20
20
20
20
20
20
20
20
20
20
20
20
20
20
20
20
20
20
ENDCHAR
STARTCHAR 00D0
ENCODING 208
SWIDTH 640 0
DWIDTH 16 0
BBX 15 18 0 0
BITMAP
3FE0
20F0
2018
200C
2006
2006
2002
2002
FF02
2002
2002
2006
2006
2004
200C
2018
20F0
3FE0
ENDCHAR
STARTCHAR 00D1
ENCODING 209
SWIDTH 680 0
DWIDTH 17 0
BBX 13 23 2 0
BITMAP
0C40
1B40
11C0
0000
0000
C008
C008
E008
B008
B008
9808
8C08
8408
8608
8308
8108
8188
80C8
8048
8068
8038
8018
8018
ENDCHAR
STARTCHAR 00D2
ENCODING 210
SWIDTH 720 0
DWIDTH 18 0
BBX 16 24 1 0
BITMAP
0200
0300
0100
0100
0000
0000
07E0
1E78
300C
6006
4002
C003
C003
8003
8001
8001
8003
C003
C003
4002
6006
300C
1E78
07E0
ENDCHAR
STARTCHAR 00D3
ENCODING 211
SWIDTH 720 0
DWIDTH 18 0
BBX 16 23 1 0
BITMAP
0040
0080
0080
0000
0000
07E0
1E78
300C
6006
4002
C003
C003
8003
8001
8001
8003
C003
C003
4002
6006
300C
1E78
07E0
ENDCHAR
STARTCHAR 00D4
ENCODING 212
SWIDTH 720 0
DWIDTH 18 0
BBX 16 23 1 0
BITMAP
0180
03C0
0660
0000
0000
07E0
1E78
300C
6006
4002
C003
C003
8003
8001
8001
8003
C003
C003
4002
6006
300C
1E78
07E0
ENDCHAR
STARTCHAR 00D5
ENCODING 213
SWIDTH 720 0
DWIDTH 18 0
BBX 16 23 1 0
BITMAP
0710
05B0
0CE0
0000
0000
07E0
1E78
300C
6006
4002
C003
C003
8003
8001
8001
8003
C003
C003
4002
6006
300C
1E78
07E0
ENDCHAR
STARTCHAR 00D6
ENCODING 214
SWIDTH 720 0
DWIDTH 18 0
BBX 16 22 1 0
BITMAP
0460
0460
0000
0000
07E0
1E78
300C
6006
4002
C003
C003
8003
8001
8001
8003
C003
C003
4002
6006
300C
1E78
07E0
ENDCHAR
STARTCHAR 00D7
ENCODING 215
SWIDTH 480 0
DWIDTH 12 0
BBX 8 9 2 5
BITMAP
81
C3
66
3C
18
3C
66
C3
81
ENDCHAR
STARTCHAR 00D8
ENCODING 216
SWIDTH 720 0
DWIDTH 18 0
BBX 16 18 1 0
BITMAP
07E1
1EFB
300E
600E
401A
C033
C023
8043
8081
8181
8303
C603
CC03
5802
7006
700C
DE78
87E0
ENDCHAR
STARTCHAR 00D9
ENCODING 217
SWIDTH 680 0
DWIDTH 17 0
BBX 14 24 2 0
BITMAP
0400
0600
0200
0200
0000
0000
800C
800C
800C
800C
800C
800C
800C
800C
800C
800C
800C
800C
800C
C008
C018
6030
3DE0
0FC0
ENDCHAR
STARTCHAR 00DA
ENCODING 218
SWIDTH 680 0
DWIDTH 17 0
BBX 14 24 2 0
BITMAP
0100
0100
0300
0200
0000
0000
800C
800C
800C
800C
800C
800C
800C
800C
800C
800C
800C
800C
800C
C008
C018
6030
3DE0
0FC0
ENDCHAR
STARTCHAR 00DB
ENCODING 219
SWIDTH 680 0
DWIDTH 17 0
BBX 14 23 2 0
BITMAP
0700
0580
08C0
0000
0000
800C
800C
800C
800C
800C
800C
800C
800C
800C
800C
800C
800C
800C
C008
C018
6030
3DE0
0FC0
ENDCHAR
STARTCHAR 00DC
ENCODING 220
SWIDTH 680 0
DWIDTH 17 0
BBX 14 23 2 0
BITMAP
18C0
18C0
0000
0000
0000
800C
800C
800C
800C
800C
800C
800C
800C
800C
800C
800C
800C
800C
C008
C018
6030
3DE0
0FC0
ENDCHAR
STARTCHAR 00DD
ENCODING 221
SWIDTH 520 0
DWIDTH 13 0
BBX 13 24 0 0
BITMAP
0100
0100
0300
0200
0000
0000
C018
6018
6030
3020
1060
1840
08C0
0D80
0780
0700
0200
0200
0200
0200
0200
0200
0200
0200
ENDCHAR
STARTCHAR 00DE
ENCODING 222
SWIDTH 600 0
DWIDTH 15 0
BBX 12 18 2 0
BITMAP
8000
8000
8000
8000
FF80
80C0
8060
8030
8030
8030
8030
8060
80C0
FF80
8000
8000
8000
8000
ENDCHAR
STARTCHAR 00DF
ENCODING 223
SWIDTH 600 0
DWIDTH 15 0
BBX 11 18 2 0
BITMAP
3E00
7700
C180
8080
80C0
8080
8180
8380
8700
81C0
8060
8060
8020
8020
8060
8040
9BC0
9F00
ENDCHAR
STARTCHAR 00E0
ENCODING 224
SWIDTH 560 0
DWIDTH 14 0
BBX 11 20 1 0
BITMAP
0800
0C00
0400
0600
0000
0000
1F80
39C0
6060
4060
0020
0020
0FE0
7C20
C020
C060
C060
C0E0
63A0
3E20
ENDCHAR
STARTCHAR 00E1
ENCODING 225
SWIDTH 560 0
DWIDTH 14 0
BBX 11 20 1 0
BITMAP
0100
0300
0200
0600
0000
0000
1F80
39C0
6060
4060
0020
0020
0FE0
7C20
C020
C060
C060
C0E0
63A0
3E20
ENDCHAR
STARTCHAR 00E2
ENCODING 226
SWIDTH 560 0
DWIDTH 14 0
BBX 11 19 1 0
BITMAP
0600
0F00
1980
0000
0000
1F80
39C0
6060
4060
0020
0020
0FE0
7C20
C020
C060
C060
C0E0
63A0
3E20
ENDCHAR
STARTCHAR 00E3
ENCODING 227
SWIDTH 560 0
DWIDTH 14 0
BBX 11 18 1 0
BITMAP
1C40
17C0
0000
0000
1F80
39C0
6060
4060
0020
0020
0FE0
7C20
C020
C060
C060
C0E0
63A0
3E20
ENDCHAR
STARTCHAR 00E4
ENCODING 228
SWIDTH 560 0
DWIDTH 14 0
BBX 11 18 1 0
BITMAP
1880
1880
0000
0000
1F80
39C0
6060
4060
0020
0020
0FE0
7C20
C020
C060
C060
C0E0
63A0
3E20
ENDCHAR
STARTCHAR 00E5
ENCODING 229
SWIDTH 560 0
DWIDTH 14 0
BBX 11 20 1 0
BITMAP
0F00
0900
1980
0900
0F00
0000
1F80
39C0
6060
4060
0020
0020
0FE0
7C20
C020
C060
C060
C0E0
63A0
3E20
ENDCHAR
STARTCHAR 00E6
ENCODING 230
SWIDTH 960 0
DWIDTH 24 0
BBX 22 14 1 0
BITMAP
1F87C0
39CEF0
607810
407018
003008
002008
1FFFFC
702000
C02000
807000
C07008
C0D818
638E70
3E07C0
ENDCHAR
STARTCHAR 00E7
ENCODING 231
SWIDTH 560 0
DWIDTH 14 0
BBX 12 20 1 -6
BITMAP
0F80
3DC0
6060
4030
C000
C000
C000
C000
C000
C000
4030
6060
3DC0
1F80
0600
0600
0300
0100
0300
0E00
ENDCHAR
STARTCHAR 00E8
ENCODING 232
SWIDTH 560 0
DWIDTH 14 0
BBX 12 20 1 0
BITMAP
0400
0400
0600
0200
0000
0000
0F80
3DC0
6060
4030
C010
C010
FFF0
C000
C000
C000
4030
6020
3DE0
0F80
ENDCHAR
STARTCHAR 00E9
ENCODING 233
SWIDTH 560 0
DWIDTH 14 0
BBX 12 19 1 0
BITMAP
0100
0300
0200
0000
0000
0F80
3DC0
6060
4030
C010
C010
FFF0
C000
C000
C000
4030
6020
3DE0
0F80
ENDCHAR
STARTCHAR 00EA
ENCODING 234
SWIDTH 560 0
DWIDTH 14 0
BBX 12 19 1 0
BITMAP
0600
0D00
1880
0000
0000
0F80
3DC0
6060
4030
C010
C010
FFF0
C000
C000
C000
4030
6020
3DE0
0F80
ENDCHAR
STARTCHAR 00EB
ENCODING 235
SWIDTH 560 0
DWIDTH 14 0
BBX 12 18 1 0
BITMAP
1880
1880
0000
0000
0F80
3DC0
6060
4030
C010
C010
FFF0
C000
C000
C000
4030
6020
3DE0
0F80
ENDCHAR
STARTCHAR 00EC
ENCODING 236
SWIDTH 200 0
DWIDTH 5 0
BBX 2 20 1 0
BITMAP
80
80
C0
40
00
00
40
40
40
40
40
40
40
40
40
40
40
40
40
40
ENDCHAR
STARTCHAR 00ED
ENCODING 237
SWIDTH 200 0
DWIDTH 5 0
BBX 3 20 2 0
BITMAP
60
40
40
C0
00
00
80
80
80
80
80
80
80
80
80
80
80
80
80
80
ENDCHAR
STARTCHAR 00EE
ENCODING 238
SWIDTH 200 0
DWIDTH 5 0
BBX 6 19 0 0
BITMAP
30
58
8C
00
00
20
20
20
20
20
20
20
20
20
20
20
20
20
20
ENDCHAR
STARTCHAR 00EF
ENCODING 239
SWIDTH 200 0
DWIDTH 5 0
BBX 6 18 0 0
BITMAP
8C
8C
00
00
20
20
20
20
20
20
20
20
20
20
20
20
20
20
ENDCHAR
STARTCHAR 00F0
ENCODING 240
SWIDTH 560 0
DWIDTH 14 0
BBX 12 20 1 0
BITMAP
0040
06C0
0380
03C0
0260
0020
0030
1F90
30F0
6030
C030
C010
8010
8010
C010
C010
4030
6060
39C0
1F80
ENDCHAR
STARTCHAR 00F1
ENCODING 241
SWIDTH 600 0
DWIDTH 15 0
BBX 11 18 2 0
BITMAP
3880
2F80
0000
0000
9F00
BB80
E0C0
C060
8060
8020
8020
8020
8020
8020
8020
8020
8020
8020
ENDCHAR
STARTCHAR 00F2
ENCODING 242
SWIDTH 600 0
DWIDTH 15 0
BBX 13 20 1 0
BITMAP
0C00
0400
0400
0600
0000
0000
0F80
3DC0
6060
4030
C010
C010
C018
C018
C010
C010
4030
6060
3DC0
0F80
ENDCHAR
STARTCHAR 00F3
ENCODING 243
SWIDTH 600 0
DWIDTH 15 0
BBX 13 19 1 0
BITMAP
0100
0300
0200
0000
0000
0F80
3DC0
6060
4030
C010
C010
C018
C018
C010
C010
4030
6060
3DC0
0F80
ENDCHAR
STARTCHAR 00F4
ENCODING 244
SWIDTH 600 0
DWIDTH 15 0
BBX 13 19 1 0
BITMAP
0600
0D00
1880
0000
0000
0F80
3DC0
6060
4030
C010
C010
C018
C018
C010
C010
4030
6060
3DC0
0F80
ENDCHAR
STARTCHAR 00F5
ENCODING 245
SWIDTH 600 0
DWIDTH 15 0
BBX 13 18 1 0
BITMAP
1C40
17C0
0000
0000
0F80
3DC0
6060
4030
C010
C010
C018
C018
C010
C010
4030
6060
3DC0
0F80
ENDCHAR
STARTCHAR 00F6
ENCODING 246
SWIDTH 600 0
DWIDTH 15 0
BBX 13 18 1 0
BITMAP
1880
1880
0000
0000
0F80
3DC0
6060
4030
C010
C010
C018
C018
C010
C010
4030
6060
3DC0
0F80
ENDCHAR
STARTCHAR 00F7
ENCODING 247
SWIDTH 560 0
DWIDTH 14 0
BBX 11 8 1 5
BITMAP
0600
0600
0000
FFE0
0000
0000
0600
0600
ENDCHAR
STARTCHAR 00F8
ENCODING 248
SWIDTH 600 0
DWIDTH 15 0
BBX 13 14 1 0
BITMAP
0F88
3DF8
6070
4070
C0D0
C190
C318
C618
CC10
D810
7030
6060
FDC0
9F80
ENDCHAR
STARTCHAR 00F9
ENCODING 249
SWIDTH 600 0
DWIDTH 15 0
BBX 12 20 1 0
BITMAP
0C00
0400
0600
0200
0000
0000
C030
C030
C030
C030
C030
C030
C030
C030
C030
4030
6030
6070
39D0
1F10
ENDCHAR
STARTCHAR 00FA
ENCODING 250
SWIDTH 600 0
DWIDTH 15 0
BBX 12 20 1 0
BITMAP
0100
0300
0200
0200
0000
0000
C030
C030
C030
C030
C030
C030
C030
C030
C030
4030
6030
6070
39D0
1F10
ENDCHAR
STARTCHAR 00FB
ENCODING 251
SWIDTH 600 0
DWIDTH 15 0
BBX 12 19 1 0
BITMAP
0600
0D00
1880
0000
0000
C030
C030
C030
C030
C030
C030
C030
C030
C030
4030
6030
6070
39D0
1F10
ENDCHAR
STARTCHAR 00FC
ENCODING 252
SWIDTH 600 0
DWIDTH 15 0
BBX 12 18 1 0
BITMAP
1880
1880
0000
0000
C030
C030
C030
C030
C030
C030
C030
C030
C030
4030
6030
6070
39D0
1F10
ENDCHAR
STARTCHAR 00FD
ENCODING 253
SWIDTH 520 0
DWIDTH 13 0
BBX 11 26 1 -6
BITMAP
0200
0200
0600
0400
0000
0000
8020
C060
C040
4040
60C0
2080
3180
3180
1100
1B00
0B00
0E00
0600
0400
0400
0C00
0800
1800
1800
1000
ENDCHAR
STARTCHAR 00FE
ENCODING 254
SWIDTH 600 0
DWIDTH 15 0
BBX 12 24 2 -6
BITMAP
8000
8000
8000
8000
9F00
BBC0
E0C0
C060
8020
8020
8030
8030
8020
8020
C060
E0C0
BBC0
9F00
8000
8000
8000
8000
8000
8000
ENDCHAR
STARTCHAR 00FF
ENCODING 255
SWIDTH 520 0
DWIDTH 13 0
BBX 11 24 1 -6
BITMAP
3180
3180
0000
0000
8020
C060
C040
4040
60C0
2080
3180
3180
1100
1B00
0B00
0E00
0600
0400
0400
0C00
0800
1800
1800
1000
ENDCHAR
ENDFONT
